<?xml version="1.0" standalone="no"?>
<!DOCTYPE svg PUBLIC "-//W3C//DTD SVG 20010904//EN"
 "http://www.w3.org/TR/2001/REC-SVG-20010904/DTD/svg10.dtd">
<svg version="1.0" xmlns="http://www.w3.org/2000/svg"
 width="400px" height="400px" 
 viewBox="0 0 2200 2200"
 preserveAspectRatio="xMidYMid meet">

<g transform="translate(-434,2650) scale(0.1,-0.1)"
fill="#e6e4e4" stroke="none">
<path d="M18344 15799 c-75 -5 -167 -22 -290 -53 -163 -41 -247 -56 -464 -87
-165 -24 -343 -103 -467 -207 -99 -84 -185 -179 -321 -356 -145 -188 -153
-198 -218 -301 -165 -260 -246 -500 -247 -735 0 -138 15 -211 73 -350 17 -41
65 -163 106 -270 42 -107 87 -215 101 -240 14 -25 37 -65 50 -89 14 -24 45
-75 70 -113 97 -150 119 -233 104 -385 -26 -246 -44 -280 -178 -328 -171 -62
-309 -150 -402 -257 -44 -51 -133 -179 -185 -266 -78 -131 -160 -216 -322
-338 -155 -117 -224 -139 -452 -143 -280 -6 -484 -82 -697 -262 -75 -63 -204
-197 -268 -278 -84 -107 -238 -247 -390 -355 -101 -71 -247 -215 -362 -356
-57 -69 -142 -161 -190 -205 -293 -266 -375 -519 -271 -838 31 -95 125 -323
175 -426 40 -82 226 -381 284 -458 121 -158 152 -195 213 -255 111 -107 237
-194 389 -268 194 -95 274 -123 465 -166 91 -20 237 -60 325 -89 231 -75 301
-89 410 -82 50 4 122 13 160 22 98 21 200 19 252 -4 23 -11 74 -41 115 -68
260 -175 407 -222 635 -202 208 18 436 112 738 304 94 59 199 122 235 139 59
27 74 30 165 30 87 0 112 -4 195 -33 93 -32 284 -108 550 -221 139 -59 318
-120 405 -139 144 -31 482 -41 673 -20 334 36 537 176 622 429 19 56 21 80 17
180 -4 120 -15 160 -93 340 -48 112 -43 146 52 345 45 94 94 199 110 235 73
168 191 337 409 585 87 98 204 247 270 340 91 128 141 194 356 465 140 177
219 303 269 431 54 137 39 384 -36 607 -16 50 -49 253 -59 362 -21 255 -48
360 -151 604 -69 162 -88 231 -88 326 0 88 24 145 99 245 70 93 92 128 121
196 25 58 27 76 28 189 0 145 -12 199 -94 411 -115 295 -180 435 -280 599 -15
25 -67 121 -115 214 -94 182 -141 260 -189 317 -46 55 -121 159 -141 199 -55
107 -167 260 -241 329 -178 166 -391 281 -659 356 -109 30 -196 70 -302 139
-221 142 -604 281 -833 301 -41 3 -86 7 -100 9 -14 2 -75 0 -136 -5z"/>
</g>
</svg>
