<?xml version="1.0" standalone="no"?>
<!DOCTYPE svg PUBLIC "-//W3C//DTD SVG 20010904//EN"
 "http://www.w3.org/TR/2001/REC-SVG-20010904/DTD/svg10.dtd">
<svg version="1.0" xmlns="http://www.w3.org/2000/svg"
 width="400px" height="400px" 
 viewBox="0 0 2200 2200"
 preserveAspectRatio="xMidYMid meet">

<g transform="translate(-434,2650) scale(0.1,-0.1)"
fill="#e6e4e4" stroke="none">
<path d="M7749 17246 c-2 -2 -40 -7 -84 -11 -44 -3 -96 -8 -115 -11 -19 -3
-53 -7 -75 -9 -49 -6 -104 -19 -215 -52 -47 -14 -101 -29 -120 -35 -52 -16
-115 -45 -173 -82 -29 -18 -68 -38 -87 -46 -19 -7 -48 -22 -63 -33 -15 -10
-33 -20 -40 -21 -7 -1 -32 -11 -57 -23 -66 -31 -174 -78 -180 -78 -3 0 -39
-21 -80 -47 -73 -46 -230 -194 -230 -217 0 -6 -3 -11 -8 -11 -4 0 -13 -14 -20
-30 -8 -17 -19 -36 -25 -43 -7 -6 -21 -30 -33 -52 -48 -92 -109 -192 -130
-213 -7 -7 -28 -33 -46 -58 -17 -25 -46 -54 -64 -65 -18 -11 -43 -33 -56 -50
-12 -16 -33 -42 -45 -57 -13 -15 -23 -35 -23 -45 0 -10 -9 -27 -20 -39 -16
-18 -20 -35 -19 -92 1 -86 27 -206 46 -213 7 -3 13 -14 13 -24 0 -11 7 -22 15
-25 8 -3 17 -16 21 -27 9 -30 29 -53 160 -180 22 -21 50 -50 65 -65 14 -15 40
-38 58 -52 18 -14 50 -41 71 -60 21 -20 56 -45 79 -55 22 -11 41 -23 41 -27 0
-5 7 -8 15 -8 8 0 15 -3 15 -8 0 -4 15 -13 33 -21 17 -7 46 -19 62 -26 17 -7
90 -25 163 -40 72 -15 132 -32 132 -36 0 -5 9 -9 20 -9 11 0 20 -4 20 -10 0
-5 6 -10 13 -10 6 0 27 -14 46 -30 18 -17 37 -30 40 -30 4 0 15 -13 24 -30 10
-16 15 -30 11 -30 -3 0 -1 -6 5 -13 6 -8 12 -22 14 -33 1 -10 6 -25 10 -31 18
-29 23 -206 14 -473 -2 -64 -1 -138 2 -165 4 -28 4 -62 1 -75 -3 -14 -1 -61 5
-105 11 -89 11 -217 -1 -297 -4 -29 -7 -57 -6 -61 2 -5 -7 -53 -18 -106 -12
-54 -20 -102 -19 -107 1 -5 -1 -29 -4 -54 -4 -25 -9 -130 -11 -235 -4 -184
-19 -315 -37 -315 -5 0 -9 -8 -9 -18 0 -19 -69 -158 -101 -204 -11 -14 -19
-31 -19 -37 0 -6 -4 -11 -10 -11 -5 0 -10 -7 -10 -16 0 -15 -57 -132 -70 -144
-16 -16 -72 -124 -105 -205 -9 -22 -25 -57 -36 -78 -10 -22 -19 -43 -19 -49 0
-5 -6 -24 -14 -41 -16 -35 -63 -246 -64 -287 0 -14 -1 -131 -2 -260 -1 -239 3
-305 19 -324 5 -6 13 -42 16 -80 4 -37 16 -94 26 -125 11 -31 21 -60 23 -66 2
-5 8 -23 14 -38 7 -16 12 -30 12 -33 0 -3 7 -21 17 -42 9 -20 17 -39 18 -42 1
-3 7 -18 13 -33 7 -16 12 -32 12 -36 0 -11 30 -72 50 -101 16 -23 29 -60 50
-150 4 -19 15 -60 24 -90 8 -30 18 -89 21 -130 4 -41 11 -80 16 -86 5 -6 12
-36 15 -65 3 -30 10 -59 14 -64 5 -6 11 -37 15 -70 10 -101 25 -177 46 -233 5
-13 9 -34 9 -47 0 -13 4 -26 8 -29 4 -2 25 -58 46 -123 38 -115 45 -134 66
-170 10 -19 41 -91 46 -108 15 -52 51 -129 86 -184 72 -112 128 -169 323 -324
78 -63 103 -96 126 -165 12 -37 24 -71 27 -76 3 -5 6 -31 8 -58 2 -26 6 -54
11 -61 8 -12 10 -22 17 -67 4 -26 20 -71 36 -105 5 -11 21 -51 35 -88 38 -104
88 -170 246 -327 124 -124 153 -150 167 -150 6 0 19 -11 29 -23 10 -13 39 -36
63 -52 25 -15 54 -37 65 -49 20 -21 47 -40 75 -53 12 -6 29 -19 74 -58 7 -5
21 -15 31 -21 11 -6 43 -23 70 -39 28 -15 62 -36 77 -46 14 -11 30 -19 35 -19
4 0 19 -9 33 -20 14 -11 32 -20 41 -20 16 0 48 -13 122 -51 22 -10 44 -19 50
-19 7 0 25 -7 41 -15 15 -8 57 -20 92 -27 35 -6 64 -15 64 -20 0 -4 18 -11 40
-14 22 -4 40 -10 40 -15 0 -5 9 -9 20 -9 11 0 20 -4 20 -10 0 -5 7 -10 15 -10
27 0 135 -61 188 -107 28 -23 55 -43 59 -43 5 0 34 -16 64 -35 30 -19 58 -35
63 -35 5 0 11 -3 13 -7 4 -10 76 -52 101 -60 9 -3 17 -9 17 -14 0 -5 7 -9 15
-9 8 0 15 -4 15 -10 0 -5 4 -10 10 -10 5 0 33 -15 62 -32 87 -54 112 -68 131
-74 9 -4 17 -10 17 -15 0 -5 7 -9 15 -9 18 0 209 -177 263 -243 26 -32 189
-177 200 -177 6 0 12 -4 12 -10 0 -5 5 -10 11 -10 7 0 21 -10 33 -22 27 -29
102 -78 118 -78 7 0 33 -11 57 -25 23 -14 49 -25 56 -25 7 0 30 -9 52 -19 79
-41 112 -51 268 -86 166 -37 199 -39 420 -31 135 5 163 9 265 36 54 14 229
120 250 151 8 12 21 27 28 35 6 7 12 19 12 26 0 8 4 18 9 24 14 14 53 192 53
244 0 54 -13 101 -41 155 -12 21 -21 45 -21 51 0 7 -9 15 -19 19 -11 3 -23 14
-26 24 -6 21 -48 65 -96 101 -18 14 -38 31 -45 38 -7 6 -21 12 -31 12 -10 0
-27 7 -37 15 -11 8 -28 15 -38 15 -10 0 -18 4 -18 8 0 5 -43 17 -95 27 -52 11
-95 23 -95 27 0 4 -6 8 -12 8 -24 0 -107 84 -112 112 -3 15 -7 32 -10 37 -4 5
-8 22 -10 38 -8 68 -49 228 -74 283 -8 19 -16 37 -17 40 -13 50 -61 113 -164
218 -67 67 -125 122 -129 122 -11 0 -67 98 -81 140 -9 30 -13 98 -10 160 2 32
-50 211 -70 239 -12 16 -21 36 -21 44 0 8 -7 17 -15 21 -8 3 -15 12 -15 19 0
20 -107 110 -160 134 -14 6 -50 23 -80 37 -87 40 -143 49 -305 47 -83 -1 -216
-46 -395 -134 -94 -46 -145 -52 -178 -21 -23 22 -41 62 -47 108 -5 37 25 186
37 186 4 0 8 7 8 16 0 19 42 62 95 96 51 33 166 52 295 48 136 -4 197 -1 315
14 17 2 73 7 125 10 90 7 97 6 140 -19 25 -14 53 -28 63 -32 9 -3 17 -9 17
-14 0 -5 6 -9 13 -9 6 0 40 -44 74 -98 34 -54 77 -114 95 -134 18 -20 44 -49
58 -65 36 -40 75 -71 128 -100 26 -14 52 -29 57 -34 21 -16 235 -58 272 -53
118 15 136 19 165 37 13 8 34 17 48 21 34 8 190 160 190 186 0 5 11 32 24 60
49 101 70 267 52 415 -4 33 -9 85 -11 115 -5 77 34 250 57 250 5 0 8 7 8 15 0
8 5 15 10 15 6 0 10 7 10 15 0 8 34 49 75 91 41 42 75 80 75 84 0 3 25 31 55
62 30 30 55 60 55 65 0 6 18 31 40 56 22 25 40 50 40 56 0 6 3 11 8 11 4 0 13
15 21 33 7 17 20 45 27 61 8 16 14 37 14 47 0 10 4 20 9 24 5 3 12 19 16 36 4
17 13 42 21 57 8 15 14 35 14 44 0 9 4 19 10 23 5 3 14 32 21 65 6 33 16 60
20 60 5 0 9 7 9 16 0 18 51 124 80 164 11 15 20 31 20 35 0 4 10 17 23 29 12
11 33 38 46 59 13 21 31 46 41 55 22 21 90 129 90 142 0 6 5 10 10 10 6 0 10
5 10 11 0 6 18 31 40 56 22 25 40 50 40 54 0 27 170 151 225 165 17 3 37 12
45 19 8 7 49 29 90 48 75 35 125 72 253 190 38 34 73 63 78 65 5 2 9 8 9 14 0
6 15 28 33 48 60 70 79 94 96 120 9 14 26 33 38 43 13 10 23 25 23 33 0 8 4
14 9 14 5 0 31 20 57 43 27 24 94 72 149 107 55 35 114 77 132 94 17 17 47 45
67 61 19 17 35 34 36 39 0 5 6 17 14 25 30 36 78 138 90 195 28 130 -6 309
-80 426 -48 76 -61 91 -251 285 -79 81 -143 150 -143 155 0 4 -19 28 -42 54
-24 25 -59 64 -78 87 -19 23 -48 55 -65 71 -16 16 -41 40 -55 53 -14 14 -31
25 -37 25 -7 0 -18 8 -25 18 -13 18 -101 82 -112 82 -3 0 -30 16 -60 35 -30
19 -60 35 -66 35 -5 0 -10 5 -10 10 0 6 -7 10 -15 10 -8 0 -15 4 -15 9 0 5 -8
11 -17 15 -27 8 -80 46 -119 84 -7 6 -15 12 -19 12 -9 0 -102 97 -140 146 -18
23 -42 52 -55 65 -33 35 -109 154 -122 192 -6 17 -14 37 -18 42 -9 12 -21 59
-26 99 -2 16 -8 34 -13 40 -10 12 -19 85 -24 201 -2 39 -6 77 -9 85 -7 19 -32
129 -34 152 -5 57 -141 267 -223 343 -36 33 -75 70 -87 82 -13 12 -33 28 -45
37 -12 8 -56 46 -96 83 -41 37 -100 91 -130 118 -31 28 -65 59 -77 70 -34 31
-94 75 -102 75 -4 0 -33 24 -64 53 -31 28 -68 61 -82 73 -32 26 -69 85 -93
149 -13 36 -19 80 -20 157 -2 92 4 132 42 305 41 188 43 204 40 325 -3 74 -9
134 -16 141 -6 8 -13 29 -15 48 -10 75 -53 147 -146 240 -81 81 -115 105 -164
114 -21 4 -57 18 -81 31 -33 19 -56 24 -106 23 -35 -1 -68 0 -74 2 -43 13
-273 -40 -311 -72 -8 -6 -14 -9 -14 -5 0 18 -288 -161 -338 -210 -74 -72 -105
-96 -207 -161 -121 -77 -151 -89 -240 -97 -33 -4 -76 -8 -95 -10 -19 -3 -66
-8 -105 -11 -38 -4 -75 -11 -81 -16 -6 -5 -28 -11 -49 -14 -20 -2 -56 -13 -79
-24 -22 -11 -53 -25 -68 -30 -46 -17 -221 -132 -256 -168 -18 -18 -37 -33 -41
-33 -4 0 -30 -20 -57 -45 -27 -24 -54 -45 -61 -45 -7 0 -22 -10 -33 -22 -27
-30 -98 -31 -159 -3 -35 16 -54 35 -97 102 -30 46 -54 89 -54 96 0 7 -4 17 -8
23 -5 5 -17 32 -27 59 -9 28 -24 64 -31 80 -7 17 -23 54 -34 84 -12 30 -29 66
-39 80 -10 14 -22 37 -26 51 -11 36 -63 120 -96 155 -16 17 -51 53 -77 80 -26
28 -71 65 -100 84 -28 18 -52 36 -52 41 0 8 -45 31 -145 75 -33 15 -69 31 -80
36 -28 12 -149 36 -217 43 -31 3 -63 8 -70 11 -8 3 -16 4 -19 1z"/>
</g>
</svg>
