<?xml version="1.0" standalone="no"?>
<!DOCTYPE svg PUBLIC "-//W3C//DTD SVG 20010904//EN"
 "http://www.w3.org/TR/2001/REC-SVG-20010904/DTD/svg10.dtd">
<svg version="1.0" xmlns="http://www.w3.org/2000/svg"
 width="400px" height="400px" 
 viewBox="0 0 2200 2200"
 preserveAspectRatio="xMidYMid meet">

<g transform="translate(-434,2650) scale(0.1,-0.1)"
fill="#e6e4e4" stroke="none">
<path d="M13519 25821 c-25 -5 -133 -19 -240 -30 -106 -12 -219 -27 -249 -33
-90 -17 -223 -65 -327 -120 -281 -145 -295 -151 -488 -197 -71 -17 -161 -38
-200 -48 -38 -9 -101 -27 -140 -40 -176 -61 -227 -72 -315 -69 -70 2 -102 10
-180 40 -291 115 -401 125 -589 52 -107 -42 -186 -47 -279 -19 -37 11 -94 17
-162 17 -112 0 -132 -4 -330 -73 l-105 -36 -225 1 c-124 1 -243 4 -265 7 -238
29 -346 30 -455 5 -58 -13 -190 -66 -211 -84 -8 -8 -19 -14 -23 -14 -11 0
-143 -88 -163 -109 -44 -45 -201 -156 -276 -195 -45 -24 -140 -62 -212 -86
-236 -77 -329 -121 -500 -238 -216 -147 -408 -420 -470 -668 -39 -157 -41
-534 -4 -680 36 -142 72 -210 209 -392 121 -162 136 -215 144 -537 3 -121 8
-236 11 -255 26 -151 89 -306 183 -450 27 -41 64 -102 82 -135 103 -188 187
-298 280 -367 71 -53 154 -90 323 -144 225 -72 250 -82 457 -179 96 -45 193
-91 215 -100 22 -10 119 -56 215 -103 358 -172 451 -198 700 -194 63 0 146 7
185 14 38 7 140 13 225 13 153 0 156 0 221 -31 37 -18 85 -49 108 -69 36 -33
139 -161 166 -207 14 -23 99 -161 137 -223 18 -27 58 -90 90 -139 32 -48 58
-90 58 -93 0 -3 9 -18 20 -33 28 -39 66 -111 185 -345 56 -110 123 -235 148
-278 26 -43 47 -80 47 -83 0 -3 33 -52 165 -245 17 -25 44 -62 59 -82 70 -92
161 -285 216 -457 112 -353 183 -531 236 -591 8 -8 14 -19 14 -23 0 -4 16 -27
35 -50 19 -24 35 -45 35 -48 0 -3 19 -34 43 -68 23 -34 47 -69 52 -78 6 -9 26
-43 45 -76 19 -32 43 -70 52 -85 10 -14 21 -33 25 -41 3 -8 21 -33 40 -56 18
-23 33 -44 33 -47 0 -5 64 -93 207 -286 27 -35 50 -69 52 -75 2 -6 9 -18 16
-26 39 -47 101 -193 166 -393 22 -68 79 -184 120 -245 16 -24 29 -45 29 -48 0
-3 16 -30 35 -59 20 -29 51 -84 70 -122 114 -222 231 -356 506 -578 285 -230
504 -362 714 -429 123 -40 165 -46 370 -52 184 -7 345 3 438 27 20 5 56 14 80
20 125 32 298 142 377 241 145 182 185 436 91 573 -20 29 -52 66 -71 82 -39
32 -155 86 -210 98 -85 17 -244 67 -301 94 -117 57 -213 150 -267 257 -28 55
-59 228 -72 399 -19 239 -31 306 -77 405 -37 78 -73 121 -172 203 -47 40 -94
81 -104 92 -34 38 -54 100 -66 205 -19 163 -46 299 -104 530 -32 125 -32 125
-30 360 4 329 -1 309 109 497 130 220 153 288 161 458 6 138 5 143 -71 386
-22 73 -12 145 38 267 73 176 89 254 89 422 0 80 -5 201 -11 270 -7 69 -14
274 -16 455 -5 414 -19 496 -128 740 -25 55 -50 121 -56 147 -32 129 32 311
194 550 198 292 227 371 225 625 -1 205 -51 426 -158 703 -30 79 -131 288
-170 352 -113 187 -128 217 -156 313 -18 62 -21 111 -27 445 l-7 375 -31 95
c-48 144 -111 247 -209 340 -78 74 -143 114 -278 170 -36 15 -280 23 -346 11z"/>
</g>
</svg>
