<?xml version="1.0" standalone="no"?>
<!DOCTYPE svg PUBLIC "-//W3C//DTD SVG 20010904//EN"
 "http://www.w3.org/TR/2001/REC-SVG-20010904/DTD/svg10.dtd">
<svg version="1.0" xmlns="http://www.w3.org/2000/svg"
 width="400px" height="400px" 
 viewBox="0 0 2200 2200"
 preserveAspectRatio="xMidYMid meet">

<g transform="translate(-434,2650) scale(0.1,-0.1)"
fill="#e6e4e4" stroke="none">
<path d="M21540 23186 c-44 -8 -109 -33 -200 -78 -74 -37 -189 -86 -255 -109
-188 -65 -274 -115 -420 -243 -44 -39 -82 -73 -85 -76 -3 -4 -16 -14 -30 -23
-48 -33 -95 -21 -219 57 -122 78 -216 101 -401 101 -161 0 -253 -15 -405 -67
-147 -50 -230 -101 -430 -269 -77 -64 -159 -126 -182 -138 -23 -11 -90 -35
-150 -52 -118 -34 -213 -75 -283 -122 -86 -59 -193 -178 -257 -288 -113 -191
-183 -274 -281 -332 -66 -38 -99 -46 -267 -62 -75 -7 -157 -20 -310 -50 -123
-24 -169 -31 -265 -40 -277 -28 -328 -42 -575 -165 -110 -54 -243 -117 -295
-140 -194 -84 -289 -155 -363 -271 -44 -68 -61 -108 -98 -229 -104 -334 -108
-351 -124 -665 -2 -49 -16 -139 -30 -200 -34 -144 -40 -215 -25 -305 11 -70
70 -266 89 -301 12 -21 89 -311 136 -514 8 -33 24 -128 35 -212 12 -83 23
-162 26 -175 3 -12 9 -50 14 -84 5 -34 12 -68 15 -76 13 -33 32 -192 28 -237
-4 -64 -17 -98 -83 -236 -32 -66 -63 -144 -70 -174 -18 -78 -7 -235 21 -303
83 -196 303 -408 509 -490 176 -70 278 -91 435 -89 92 1 274 46 370 91 11 5
65 27 121 49 172 67 246 73 441 32 224 -47 365 -52 498 -16 69 18 196 79 273
129 113 75 237 121 352 131 30 3 156 7 280 10 218 4 320 10 349 20 27 10 247
6 301 -6 76 -16 171 -58 275 -124 151 -94 188 -128 223 -200 51 -103 70 -158
97 -275 41 -177 57 -229 90 -296 64 -131 150 -207 334 -298 234 -115 367 -248
385 -386 3 -25 8 -83 11 -129 13 -207 54 -326 166 -478 62 -83 218 -227 290
-265 42 -23 141 -89 198 -133 82 -62 223 -129 326 -154 155 -39 245 -78 340
-146 147 -106 323 -135 545 -87 115 24 145 26 375 27 232 1 255 3 313 23 60
22 153 72 180 99 7 7 21 18 30 25 33 24 110 123 178 228 53 82 108 146 253
294 265 268 259 262 341 328 100 79 106 84 201 148 172 116 307 240 414 381
63 84 145 198 145 203 0 3 36 56 79 118 107 152 219 338 251 418 27 66 55 169
66 237 3 21 7 52 10 68 10 61 47 193 85 307 49 144 59 197 65 318 8 184 -35
418 -111 606 -69 172 -80 217 -90 384 -9 138 -29 206 -113 380 -74 155 -77
163 -121 400 -29 157 -60 253 -104 332 -13 24 -34 61 -47 83 -28 50 -115 177
-156 230 -17 22 -47 69 -65 105 -30 59 -33 72 -32 145 1 44 5 211 9 370 14
545 12 597 -20 704 -16 52 -44 120 -62 152 -19 31 -34 62 -34 67 0 5 -6 15
-14 21 -22 19 -75 134 -85 188 -6 26 -12 95 -15 153 -9 184 -38 424 -66 544
-33 147 -143 296 -259 352 -31 15 -64 31 -73 36 -33 15 -181 21 -228 8 -76
-20 -182 -78 -244 -132 -76 -68 -193 -224 -299 -403 -27 -46 -44 -77 -128
-231 -28 -53 -57 -123 -104 -254 -14 -41 -33 -91 -40 -110 -8 -19 -23 -62 -35
-95 -28 -77 -54 -119 -91 -146 -53 -37 -81 -19 -303 200 -193 191 -242 248
-246 287 -6 53 4 69 101 172 56 58 116 129 134 157 67 105 99 263 75 369 -19
79 -76 187 -127 240 -56 56 -170 134 -224 153 -22 7 -47 17 -57 22 -9 5 -69
26 -132 46 -63 21 -132 46 -152 56 -21 11 -42 19 -48 19 -15 0 -288 156 -315
179 -33 30 -187 118 -235 136 -25 9 -53 21 -62 26 -17 8 -53 15 -133 23 -22 2
-69 -2 -105 -8z"/>
</g>
</svg>
